<svg version="1.1" id="Layer_1" xmlns="http://www.w3.org/2000/svg" xmlns:xlink="http://www.w3.org/1999/xlink" x="0px" y="0px"
	 width="100%" viewBox="0 0 1024 1024" enable-background="new 0 0 1024 1024" xml:space="preserve">
<path fill="#000000" opacity="1.000000" stroke="none" 
	d="
M465.897095,553.309692 
	C424.458862,540.075134 395.156677,513.767578 379.110626,473.815063 
	C359.056183,423.882050 370.955933,366.827393 411.066681,328.128937 
	C411.666321,327.550446 412.273987,326.980347 412.875397,326.403687 
	C419.249481,320.291962 419.074585,320.437561 424.614777,327.080414 
	C427.245300,330.234497 426.982544,332.140259 424.058014,334.873383 
	C405.584625,352.137634 393.016632,372.915527 386.955688,397.598022 
	C380.457733,424.060211 384.040070,449.397003 394.778442,474.063171 
	C395.943329,476.738953 397.248749,477.508698 400.456543,477.082001 
	C419.273407,474.579102 437.188873,478.532043 454.510590,485.676086 
	C466.602600,490.663269 477.755005,497.254913 487.609436,505.930786 
	C488.482849,506.699738 489.352539,507.480377 490.147949,508.326935 
	C490.464996,508.664368 490.575653,509.195679 491.114502,510.362518 
	C484.805481,511.420807 479.123291,509.660797 473.522797,508.255310 
	C461.497864,505.237549 451.070435,498.139038 439.263947,494.499542 
	C430.303253,491.737305 421.202576,489.900391 411.773560,490.125854 
	C409.627197,490.177155 407.455536,490.189758 405.473480,491.208221 
	C407.969360,498.937531 412.114899,502.103577 419.498444,501.944824 
	C435.804840,501.594269 450.506622,507.240845 464.910736,514.027710 
	C489.772217,525.741821 514.604797,524.933838 539.102722,513.205933 
	C553.907898,506.118164 569.131042,501.437897 585.684143,501.956116 
	C592.829224,502.179810 593.794189,495.802277 597.911804,491.499786 
	C592.149292,489.619995 587.202271,489.903229 582.303528,490.392242 
	C569.742310,491.646179 557.820618,495.215515 546.586670,500.952393 
	C536.694153,506.004181 526.306580,509.331299 515.259888,510.561432 
	C513.991394,510.702698 512.633484,511.317047 511.497955,509.913696 
	C511.657501,507.681000 513.534119,506.611115 514.970520,505.400757 
	C534.920593,488.590210 557.936768,479.132385 583.895020,476.621948 
	C590.250977,476.007263 596.514404,476.253998 602.756165,477.331635 
	C605.012939,477.721252 606.178162,476.876404 607.051514,474.963348 
	C612.703308,462.584381 616.457703,449.574158 617.509949,436.090210 
	C620.622559,396.203247 607.371460,362.466888 577.918396,335.295776 
	C574.689026,332.316620 574.450562,329.994537 577.466003,327.051666 
	C578.178650,326.356140 578.896973,325.614807 579.404480,324.769562 
	C581.618774,321.081940 583.806519,321.254303 586.878296,324.090790 
	C601.264343,337.374664 612.884338,352.642212 620.815247,370.596191 
	C653.716553,445.078064 613.138489,531.399597 534.738281,553.681091 
	C511.915741,560.167236 489.078857,560.089539 465.897095,553.309692 
M503.438293,536.337585 
	C490.595947,536.801575 478.296234,534.301636 466.437195,529.486938 
	C458.732666,526.358887 451.133698,522.955811 443.349091,520.045959 
	C438.851807,518.364929 434.204987,516.663025 428.797577,517.283569 
	C450.464203,536.179932 481.681946,548.217102 518.976562,542.808655 
	C538.070007,540.039734 565.077942,527.087830 572.217468,517.200806 
	C569.918884,517.320862 567.834839,517.428467 565.682739,517.905823 
	C556.005066,520.052673 547.192932,524.423523 538.174011,528.274170 
	C527.378357,532.883545 516.205933,535.917664 503.438293,536.337585 
z"/>
<path fill="#000000" opacity="1.000000" stroke="none" 
	d="
M469.503571,414.526825 
	C464.581940,403.220032 459.829102,392.274414 454.717743,380.503113 
	C485.677277,380.503113 515.662842,380.503113 545.597900,380.503113 
	C546.748108,382.341705 545.649963,383.825592 545.011108,385.296112 
	C540.764465,395.071899 536.419312,404.805176 532.214111,414.598572 
	C531.096741,417.200836 529.546143,418.438354 526.559448,418.420105 
	C509.560181,418.316132 492.559723,418.333862 475.560242,418.423767 
	C472.718597,418.438782 470.701477,417.625641 469.503571,414.526825 
z"/>
<path fill="#000000" opacity="1.000000" stroke="none" 
	d="
M511.866272,359.964661 
	C501.516724,366.879730 492.674438,365.212646 485.916443,355.153320 
	C484.526917,353.085022 482.779907,352.576935 480.582092,352.095154 
	C459.578796,347.491364 441.568970,337.823303 428.565216,320.245911 
	C424.678772,314.992523 420.814972,309.531250 419.444580,302.874329 
	C426.685730,300.333160 429.227966,301.208313 432.889587,307.114227 
	C444.273071,325.474854 461.331268,335.544586 481.835236,340.575775 
	C483.900818,341.082611 485.111389,340.354248 486.356873,338.567108 
	C494.415863,327.003632 507.088745,326.971466 515.465637,338.534271 
	C517.040588,340.708160 518.695618,341.135071 520.993469,340.555786 
	C541.145264,335.475861 557.665588,325.138855 569.049133,307.362457 
	C573.062744,301.094879 574.323303,300.624908 582.527344,302.579437 
	C582.112610,306.803040 579.744263,310.249847 577.653687,313.693970 
	C566.109192,332.712769 549.189087,344.646881 527.898071,350.350220 
	C521.601318,352.036926 515.413330,353.239349 511.866272,359.964661 
z"/>
<path fill="#000000" opacity="1.000000" stroke="none" 
	d="
M475.963013,429.919037 
	C475.100677,427.149231 475.610016,425.680298 478.501038,425.682617 
	C493.468719,425.694641 508.436371,425.658325 523.404053,425.647858 
	C525.857849,425.646118 527.426758,426.486206 526.298706,429.271515 
	C518.438354,448.679596 510.549652,468.076202 502.638000,487.463440 
	C502.408356,488.026184 501.823059,488.443756 500.609283,489.847870 
	C491.294067,469.987366 484.491089,449.791687 475.963013,429.919037 
z"/>
<path fill="#000000" opacity="1.000000" stroke="none" 
	d="
M485.793304,470.272644 
	C489.975983,479.440826 493.993866,488.270721 498.011780,497.100586 
	C497.504303,497.465912 496.996826,497.831207 496.489349,498.196533 
	C472.595184,474.678436 448.701019,451.160339 424.370209,427.212463 
	C427.606781,425.334717 429.977203,425.726990 432.209351,425.708588 
	C441.695709,425.630219 451.187866,425.843262 460.667694,425.580078 
	C464.498566,425.473724 466.342438,427.056335 467.794708,430.350494 
	C473.632507,443.592194 479.666809,456.747284 485.793304,470.272644 
z"/>
<path fill="#000000" opacity="1.000000" stroke="none" 
	d="
M484.815308,304.843384 
	C473.412323,306.446747 462.968994,309.724609 452.941376,314.385284 
	C451.276489,315.159149 449.411804,316.333099 447.929932,314.515717 
	C445.654327,311.724854 442.440155,309.333130 442.093384,305.485901 
	C441.936401,303.744385 444.232666,303.160431 445.719696,302.472534 
	C459.417480,296.136108 473.716644,292.263214 488.773224,290.491699 
	C511.100189,287.864777 532.141785,292.022675 552.525818,300.732513 
	C555.202576,301.876221 559.469604,302.513458 559.631104,305.494659 
	C559.838745,309.328766 555.946228,311.932709 553.438721,314.726166 
	C551.723755,316.636719 549.690063,314.924164 547.962158,314.106506 
	C532.983826,307.018585 517.234009,303.269775 500.654480,303.442291 
	C495.513397,303.495789 490.380005,304.290833 484.815308,304.843384 
z"/>
<path fill="#000000" opacity="1.000000" stroke="none" 
	d="
M443.609741,619.328491 
	C444.262390,621.247314 444.794067,622.807190 445.325745,624.367126 
	C445.686218,624.453796 446.046722,624.540527 446.407227,624.627197 
	C448.779572,617.690613 451.593750,610.862732 453.337860,603.771606 
	C454.209473,600.227905 455.704285,599.460510 458.722992,599.679260 
	C461.796204,599.901978 464.959137,599.161072 468.433990,600.425842 
	C465.415070,607.207642 462.514221,613.700745 459.634705,620.203247 
	C458.285706,623.249512 457.191559,626.432312 455.585022,629.333557 
	C454.253723,631.737732 455.559113,635.791382 452.348969,636.639099 
	C448.029877,637.779480 443.413513,637.239197 438.934753,636.825623 
	C437.031097,636.649780 436.969238,634.991272 436.580444,633.494568 
	C434.787231,626.591858 432.860352,619.723938 429.958588,612.697449 
	C428.094727,619.446167 426.222565,626.192566 424.378174,632.946594 
	C424.160339,633.744080 424.390869,634.886108 423.911469,635.354675 
	C420.426605,638.760437 416.029083,636.527954 412.059692,637.015015 
	C410.223389,637.240356 407.692719,637.703491 406.932495,635.139404 
	C403.424164,623.306763 397.471405,612.452881 393.141571,600.543579 
	C397.569702,598.883301 401.996185,600.003479 406.511414,599.700928 
	C409.228333,608.023560 411.890778,616.179382 414.931305,625.493347 
	C418.161560,617.544983 419.836823,610.373352 421.506561,603.247314 
	C422.145599,600.520142 423.275726,599.799805 425.804291,599.654663 
	C437.759735,598.968689 437.775238,598.908813 441.172272,610.296875 
	C442.027252,613.163086 442.720978,616.077332 443.609741,619.328491 
z"/>
<path fill="#000000" opacity="1.000000" stroke="none" 
	d="
M574.846191,429.747864 
	C551.768860,452.324982 528.946899,474.647675 506.096619,496.941345 
	C505.821289,497.209961 505.181122,497.104675 504.437164,497.214294 
	C503.889496,494.751190 505.574921,493.046692 506.388397,491.250854 
	C515.713501,470.664276 525.187439,450.145081 534.569946,429.584320 
	C535.609924,427.305328 536.783325,425.622070 539.644775,425.652161 
	C551.449646,425.776245 563.255615,425.792694 575.060913,425.881531 
	C575.496094,425.884796 575.928650,426.230072 576.293335,426.386353 
	C576.933167,427.923889 575.731812,428.590912 574.846191,429.747864 
z"/>
<path fill="#000000" opacity="1.000000" stroke="none" 
	d="
M685.962524,608.097961 
	C680.243469,607.756287 675.596741,610.321594 670.767761,611.732971 
	C667.418518,602.711426 668.248169,601.345764 677.110291,599.740295 
	C683.561768,598.571472 689.967346,598.078064 696.398621,599.744873 
	C701.257629,601.004272 704.731445,603.765991 706.236267,608.708801 
	C708.815063,617.179260 707.754089,625.899658 708.013123,634.528320 
	C708.064148,636.229248 706.885559,636.880859 705.435486,636.971863 
	C702.614258,637.148804 699.544617,637.813782 697.048828,636.551025 
	C694.584900,635.304443 692.711243,635.996643 690.435669,636.557373 
	C685.203979,637.846497 679.868469,637.997925 674.653809,636.446594 
	C669.675964,634.965759 666.782104,631.714661 666.705017,626.261597 
	C666.625916,620.663147 668.881836,617.035767 673.828125,614.788940 
	C680.436279,611.787476 687.122437,612.602478 693.776062,614.506104 
	C694.913208,609.361450 693.768677,608.425293 685.962524,608.097961 
M693.288940,627.477234 
	C695.883301,625.833862 695.350769,624.198669 692.958557,623.171021 
	C689.427429,621.654114 685.725830,620.910400 681.899841,622.318970 
	C680.243347,622.928833 678.736145,623.842041 678.795349,625.716431 
	C678.859375,627.741577 680.663635,628.339722 682.335632,628.537903 
	C685.797974,628.948364 689.265076,628.975708 693.288940,627.477234 
z"/>
<path fill="#000000" opacity="1.000000" stroke="none" 
	d="
M354.749695,609.095337 
	C358.613678,599.294678 371.911621,596.510559 382.303497,600.211182 
	C389.957581,602.936829 393.556091,611.051331 391.623474,621.533936 
	C383.217224,621.533936 374.672821,621.533936 366.125641,621.533936 
	C366.528076,628.857971 369.315857,629.333191 389.755768,626.168335 
	C393.042297,632.189758 391.933289,635.241821 385.641327,636.608704 
	C379.064056,638.037720 372.336121,637.976807 365.766693,636.858887 
	C357.821991,635.507019 353.795776,630.182007 352.981476,621.219482 
	C352.613373,617.168030 353.051910,613.238098 354.749695,609.095337 
M366.617004,611.682129 
	C370.644440,615.623657 375.026703,613.104370 379.688477,613.158691 
	C376.778687,607.159546 371.394165,606.561890 366.617004,611.682129 
z"/>
<path fill="#000000" opacity="1.000000" stroke="none" 
	d="
M503.964233,605.212524 
	C504.933777,607.180054 505.889038,608.780457 506.397858,610.512146 
	C509.137787,619.837097 507.963654,621.407776 498.552307,621.380554 
	C492.785461,621.363831 487.018555,621.377441 481.207550,621.377441 
	C481.888123,629.281006 486.605682,630.099060 504.442535,626.157166 
	C508.038269,631.937927 506.922760,635.300171 500.673615,636.629883 
	C494.267731,637.992920 487.719849,637.934204 481.304718,636.902283 
	C473.952026,635.719543 469.449341,631.158142 468.201996,623.724731 
	C466.863708,615.749329 467.877625,608.254761 474.513855,602.828857 
	C482.456024,596.335144 496.572388,597.524414 503.964233,605.212524 
M492.164154,608.997620 
	C485.456238,607.330811 483.536072,607.985901 481.877228,612.507202 
	C485.439514,614.043884 489.580505,614.141541 494.163239,612.786255 
	C494.783478,611.231873 493.719177,610.351746 492.164154,608.997620 
z"/>
<path fill="#000000" opacity="1.000000" stroke="none" 
	d="
M601.800537,598.715698 
	C617.901611,601.135193 625.203186,614.870239 617.962036,628.964050 
	C613.083862,638.458801 603.889526,637.683533 595.176025,637.297119 
	C587.920227,636.975281 582.518738,632.973816 580.558899,626.507263 
	C576.169434,612.024231 581.846741,597.909546 601.800537,598.715698 
M604.110107,627.820862 
	C608.376343,624.298462 609.592102,619.181824 607.612061,613.082825 
	C605.923218,607.880798 597.364563,606.059021 593.678894,610.117065 
	C591.183960,612.864075 590.449341,621.673950 592.764526,625.324280 
	C595.333191,629.374023 599.340820,629.128540 604.110107,627.820862 
z"/>
<path fill="#000000" opacity="1.000000" stroke="none" 
	d="
M560.033936,610.053955 
	C553.732239,606.526489 548.680725,609.154297 548.357422,615.949036 
	C548.088562,621.600830 548.120361,627.281738 548.348145,632.936523 
	C548.473267,636.040894 547.297424,636.991211 544.363525,637.136963 
	C536.302856,637.537109 535.994019,637.329956 536.006714,629.319763 
	C536.021423,620.019592 536.010193,610.719421 536.010193,601.465088 
	C544.401245,598.549927 546.452148,598.588196 549.005737,601.658081 
	C551.465332,600.706238 553.851379,599.362793 556.400330,598.881226 
	C564.075867,597.430786 571.211304,602.126465 573.034363,609.770813 
	C574.951660,617.810425 573.706543,626.038757 574.119690,634.172974 
	C574.213074,636.012573 573.011475,636.898315 571.306519,636.994385 
	C569.313416,637.106689 567.311096,637.045837 565.313599,637.092529 
	C562.215149,637.164978 561.222290,636.225830 561.407959,632.653320 
	C561.793457,625.238281 562.860840,617.676147 560.033936,610.053955 
z"/>
<path fill="#000000" opacity="1.000000" stroke="none" 
	d="
M661.215210,609.118896 
	C657.781860,617.640015 653.610413,625.464233 651.326538,634.023254 
	C650.825684,635.900085 649.944763,637.026489 647.982239,637.040955 
	C644.321594,637.067993 640.658752,637.089722 637.000366,636.988342 
	C635.406738,636.944214 634.322083,636.210266 633.798096,634.433838 
	C630.590149,623.556946 625.753479,613.325684 621.151733,603.002686 
	C620.834045,602.289978 620.714111,601.489075 620.439880,600.505493 
	C624.422485,599.092102 628.229126,599.842773 631.969360,599.827515 
	C634.275879,599.818054 634.279907,601.822449 634.771790,603.348511 
	C637.060791,610.449158 639.345093,617.551392 641.936035,625.600525 
	C644.440796,622.668091 644.960938,619.758423 645.879578,617.098022 
	C647.345520,612.852905 648.981262,608.628418 649.956970,604.263672 
	C650.786743,600.551392 652.691833,599.305298 656.233521,599.719055 
	C658.971252,600.038940 661.834595,599.119446 664.920166,600.622925 
	C663.706543,603.399841 662.533569,606.083801 661.215210,609.118896 
z"/>
<path fill="#000000" opacity="1.000000" stroke="none" 
	d="
M346.903870,622.457947 
	C345.043060,634.212708 341.347443,637.384644 329.956512,637.433289 
	C324.626038,637.456055 319.324005,637.479004 314.147644,635.779785 
	C310.788086,634.676941 308.878418,633.054565 310.280334,629.230103 
	C311.174896,626.789673 310.047485,623.853943 312.191193,621.413635 
	C315.957947,623.007812 318.776886,626.293640 322.943604,627.260437 
	C330.494049,629.012207 333.727081,626.754456 333.775116,619.073547 
	C333.834381,609.590271 333.789276,600.106384 333.789276,590.059448 
	C338.052399,589.233826 342.409332,589.590698 346.970490,589.960266 
	C346.970490,600.820618 346.970490,611.417664 346.903870,622.457947 
z"/>
<path fill="#000000" opacity="1.000000" stroke="none" 
	d="
M552.203735,418.387573 
	C548.148987,418.154938 544.489563,419.043701 539.952026,417.555817 
	C544.580933,407.136383 549.088684,396.989655 554.204041,385.475281 
	C564.268250,396.491852 573.507690,406.605591 582.747192,416.719330 
	C582.542603,417.274353 582.338074,417.829346 582.133545,418.384338 
	C572.313538,418.384338 562.493591,418.384338 552.203735,418.387573 
z"/>
<path fill="#000000" opacity="1.000000" stroke="none" 
	d="
M423.504669,418.381592 
	C421.304871,418.211273 418.995514,417.768250 420.882874,415.573395 
	C429.381134,405.690948 438.147278,396.038818 447.605652,385.417877 
	C453.278076,396.518524 457.116699,406.811340 462.129120,418.392303 
	C448.604858,418.392303 436.274872,418.392303 423.504669,418.381592 
z"/>
<path fill="#000000" opacity="1.000000" stroke="none" 
	d="
M514.890015,583.483215 
	C529.527039,580.201904 526.899414,580.618713 527.005615,593.030884 
	C527.120728,606.493896 527.024963,619.959290 527.227051,633.420532 
	C527.267273,636.100037 526.388550,637.141541 523.897705,637.022095 
	C520.807800,636.874023 517.600159,637.808167 514.652771,636.176819 
	C514.652771,618.648560 514.652771,601.228271 514.890015,583.483215 
z"/>
</svg>